# xmcd
#
# Track frame offsets:
#	150
#	14552
#	31262
#	44205
#	58332
#	71977
#	83345
#	103437
#	119130
#	130800
#	145435
#	156937
#	176282
#	198555
#	223592
#	240537
#	250597
#	262925
#	275185
#	287030
#	297712
#
# Disc length: 4133 seconds
#
# Revision: 1
# Processed by: cddbd v1.5.1PL0 Copyright (c) Steve Scherf et al.
# Submitted via: CDex 1.50Beta5
#
DISCID=5b102315
DTITLE=Monique Haas - Claude Debussy - L'Oeuvre pour piano, [CD 3]
DYEAR=1900
DGENRE=Classical
TTITLE0=Preludes, Livre II - I Brouillards
TTITLE1=Preludes, Livre II - II Feuilles mortes
TTITLE2=Preludes, Livre II - III La Puerta del Vino
TTITLE3=Preludes, Livre II - IV "Les fées sont d'exquises danseuses"
TTITLE4=Preludes, Livre II - V Bruyéres
TTITLE5=Preludes, Livre II - VI General Lavine -exentric
TTITLE6=Preludes, Livre II - VII La terrasse des audiences du clair de lune
TTITLE7=Preludes, Livre II - VIII Ondine
TTITLE8=Preludes, Livre II - IX Hommage é S. Pickwick Esq. P.P.M.P.C.
TTITLE9=Preludes, Livre II - X Canope
TTITLE10=Preludes, Livre II - XI Les tierces alternées
TTITLE11=Preludes, Livre II - XII Feux d'artifice
TTITLE12=Estampes - I Pagodes
TTITLE13=Estampes - II La Soirée dans grenade
TTITLE14=Estampes - III Jardins sous la pluie
TTITLE15=Children's Corner - I Docteur Gradus ad Parnassum
TTITLE16=Children's Corner - II Jimbo's Lullaby
TTITLE17=Children's Corner - III Serenade for the Doll
TTITLE18=Children's Corner - IV The Snow is Dancing
TTITLE19=Children's Corner - V The Little Shepherd
TTITLE20=Children's Corner - VI Golliwogg's Cake-walk
EXTD=
EXTT0=
EXTT1=
EXTT2=
EXTT3=
EXTT4=
EXTT5=
EXTT6=
EXTT7=
EXTT8=
EXTT9=
EXTT10=
EXTT11=
EXTT12=
EXTT13=
EXTT14=
EXTT15=
EXTT16=
EXTT17=
EXTT18=
EXTT19=
EXTT20=
PLAYORDER=
